# Blender 4.2.2 LTS
# www.blender.org
mtllib untitled.mtl
o íë¸Œ
v -1.069315 -0.186163 -1.335711
v -1.069315 -0.070903 -1.335711
v -1.069315 -0.186163 -5.713308
v -1.069315 -0.070903 -5.713308
v 3.445798 -0.186163 -1.335711
v 3.445798 -0.070903 -1.335711
v 3.445798 -0.186163 -5.713308
v 3.445798 -0.070903 -5.713308
v 0.478104 -0.186163 -4.218568
v 0.802527 -0.186163 -4.435341
v 0.629640 -0.186163 -4.342931
v 0.990120 -0.186163 -4.492247
v 1.185211 -0.186163 -4.511461
v 1.740781 -0.186163 -4.342931
v 1.567894 -0.186163 -4.435341
v 1.380301 -0.186163 -4.492247
v 2.016680 -0.186163 -2.955891
v 2.016680 -0.186163 -4.067032
v 2.185211 -0.186163 -3.511461
v 2.165996 -0.186163 -3.316371
v 2.165996 -0.186163 -3.706552
v 2.109090 -0.186163 -3.894145
v 2.109090 -0.186163 -3.128778
v 1.892317 -0.186163 -4.218568
v 0.185211 -0.186163 -3.511461
v 0.204425 -0.186163 -3.316371
v 0.204425 -0.186163 -3.706552
v 0.353741 -0.186163 -2.955891
v 0.353741 -0.186163 -4.067032
v 0.261331 -0.186163 -3.128778
v 0.261331 -0.186163 -3.894145
v 0.629640 -0.186163 -2.679992
v 0.990120 -0.186163 -2.530676
v 0.802527 -0.186163 -2.587582
v 1.567894 -0.186163 -2.587582
v 1.380301 -0.186163 -2.530676
v 1.892317 -0.186163 -2.804355
v 1.740781 -0.186163 -2.679992
v 1.185211 -0.186163 -2.511461
v 0.478104 -0.186163 -2.804355
v 0.185211 -0.070903 -3.511461
v 0.204425 -0.070903 -3.316371
v 0.204425 -0.070903 -3.706552
v 0.353741 -0.070903 -2.955891
v 0.353741 -0.070903 -4.067032
v 0.261331 -0.070903 -3.128778
v 0.261331 -0.070903 -3.894145
v 0.629640 -0.070903 -4.342931
v 0.990120 -0.070903 -4.492247
v 0.802527 -0.070903 -4.435341
v 1.567894 -0.070903 -4.435341
v 1.380301 -0.070903 -4.492247
v 1.892317 -0.070903 -4.218568
v 1.740781 -0.070903 -4.342931
v 1.185211 -0.070903 -4.511461
v 0.478104 -0.070903 -4.218568
v 0.478104 -0.070903 -2.804355
v 0.802527 -0.070903 -2.587582
v 0.990120 -0.070903 -2.530676
v 0.629640 -0.070903 -2.679992
v 1.185211 -0.070903 -2.511461
v 1.740781 -0.070903 -2.679992
v 1.567894 -0.070903 -2.587582
v 1.380301 -0.070903 -2.530676
v 2.016680 -0.070903 -2.955891
v 2.016680 -0.070903 -4.067032
v 2.185211 -0.070903 -3.511461
v 2.165996 -0.070903 -3.316371
v 2.165996 -0.070903 -3.706552
v 2.109090 -0.070903 -3.894145
v 1.892317 -0.070903 -2.804355
v 2.109090 -0.070903 -3.128778
vn -1.0000 -0.0000 -0.0000
vn -0.0000 -0.0000 -1.0000
vn 1.0000 -0.0000 -0.0000
vn -0.0000 -0.0000 1.0000
vn -0.0000 -1.0000 -0.0000
vn -0.0000 1.0000 -0.0000
vn -0.0980 -0.0000 0.9952
vn -0.2903 -0.0000 0.9569
vn -0.4714 -0.0000 0.8819
vn -0.6344 -0.0000 0.7730
vn -0.7730 -0.0000 0.6344
vn -0.8819 -0.0000 0.4714
vn -0.9569 -0.0000 0.2903
vn -0.9952 -0.0000 0.0980
vn -0.9952 -0.0000 -0.0980
vn -0.9569 -0.0000 -0.2903
vn -0.8819 -0.0000 -0.4714
vn -0.7730 -0.0000 -0.6344
vn -0.6344 -0.0000 -0.7730
vn -0.4714 -0.0000 -0.8819
vn -0.2903 -0.0000 -0.9569
vn -0.0980 -0.0000 -0.9952
vn 0.0980 -0.0000 -0.9952
vn 0.2903 -0.0000 -0.9569
vn 0.4714 -0.0000 -0.8819
vn 0.6344 -0.0000 -0.7730
vn 0.7730 -0.0000 -0.6344
vn 0.8819 -0.0000 -0.4714
vn 0.9569 -0.0000 -0.2903
vn 0.9952 -0.0000 -0.0980
vn 0.9952 -0.0000 0.0980
vn 0.9569 -0.0000 0.2903
vn 0.8819 -0.0000 0.4714
vn 0.7730 -0.0000 0.6344
vn 0.6344 -0.0000 0.7730
vn 0.4714 -0.0000 0.8819
vn 0.2903 -0.0000 0.9569
vn 0.0980 -0.0000 0.9952
vt 0.375000 0.000000
vt 0.625000 0.000000
vt 0.625000 0.250000
vt 0.375000 0.250000
vt 0.625000 0.500000
vt 0.375000 0.500000
vt 0.625000 0.750000
vt 0.375000 0.750000
vt 0.625000 1.000000
vt 0.375000 1.000000
vt 0.125000 0.750000
vt 0.210680 0.666127
vt 0.219070 0.673230
vt 0.228643 0.678507
vt 0.239030 0.681757
vt 0.249832 0.682854
vt 0.260634 0.681757
vt 0.271021 0.678507
vt 0.280594 0.673229
vt 0.288984 0.666127
vt 0.125000 0.500000
vt 0.295870 0.657473
vt 0.300987 0.647600
vt 0.304138 0.636887
vt 0.305202 0.625745
vt 0.304138 0.614604
vt 0.300987 0.603891
vt 0.295870 0.594017
vt 0.288984 0.585363
vt 0.280594 0.578261
vt 0.271021 0.572983
vt 0.260634 0.569734
vt 0.249832 0.568636
vt 0.239030 0.569734
vt 0.228643 0.572983
vt 0.219070 0.578261
vt 0.210680 0.585363
vt 0.203794 0.594017
vt 0.198677 0.603891
vt 0.195526 0.614604
vt 0.194463 0.625745
vt 0.195526 0.636887
vt 0.198677 0.647600
vt 0.203794 0.657473
vt 0.789320 0.666127
vt 0.875000 0.750000
vt 0.711016 0.666127
vt 0.719406 0.673230
vt 0.728979 0.678507
vt 0.739366 0.681757
vt 0.750168 0.682854
vt 0.760970 0.681757
vt 0.771357 0.678507
vt 0.780930 0.673230
vt 0.875000 0.500000
vt 0.796206 0.657473
vt 0.801323 0.647600
vt 0.804474 0.636887
vt 0.805537 0.625745
vt 0.804474 0.614604
vt 0.801323 0.603891
vt 0.796206 0.594017
vt 0.789320 0.585363
vt 0.780930 0.578261
vt 0.771357 0.572983
vt 0.760970 0.569734
vt 0.750168 0.568636
vt 0.739366 0.569734
vt 0.728979 0.572983
vt 0.719406 0.578261
vt 0.711016 0.585363
vt 0.704130 0.594017
vt 0.699013 0.603891
vt 0.695862 0.614604
vt 0.694798 0.625745
vt 0.695862 0.636887
vt 0.699013 0.647600
vt 0.704130 0.657473
vt 1.000000 0.732274
vt 1.000000 0.703459
vt 0.968750 0.703459
vt 0.968750 0.732274
vt 0.937500 0.703459
vt 0.937500 0.732274
vt 0.906250 0.703459
vt 0.906250 0.732274
vt 0.875000 0.703459
vt 0.875000 0.732274
vt 0.843750 0.703459
vt 0.843750 0.732274
vt 0.812500 0.703459
vt 0.812500 0.732274
vt 0.781250 0.703459
vt 0.781250 0.732274
vt 0.750000 0.703459
vt 0.750000 0.732274
vt 0.718750 0.703459
vt 0.718750 0.732274
vt 0.687500 0.703459
vt 0.687500 0.732274
vt 0.656250 0.703459
vt 0.656250 0.732274
vt 0.625000 0.703459
vt 0.625000 0.732274
vt 0.593750 0.703459
vt 0.593750 0.732274
vt 0.562500 0.703459
vt 0.562500 0.732274
vt 0.531250 0.703459
vt 0.531250 0.732274
vt 0.500000 0.703459
vt 0.500000 0.732274
vt 0.468750 0.703459
vt 0.468750 0.732274
vt 0.437500 0.703459
vt 0.437500 0.732274
vt 0.406250 0.703459
vt 0.406250 0.732274
vt 0.375000 0.703459
vt 0.375000 0.732274
vt 0.343750 0.703459
vt 0.343750 0.732274
vt 0.312500 0.703459
vt 0.312500 0.732274
vt 0.281250 0.703459
vt 0.281250 0.732274
vt 0.250000 0.703459
vt 0.250000 0.732274
vt 0.218750 0.703459
vt 0.218750 0.732274
vt 0.187500 0.703459
vt 0.187500 0.732274
vt 0.156250 0.703459
vt 0.156250 0.732274
vt 0.125000 0.703459
vt 0.125000 0.732274
vt 0.093750 0.703459
vt 0.093750 0.732274
vt 0.062500 0.703459
vt 0.062500 0.732274
vt 0.031250 0.703459
vt 0.031250 0.732274
vt 0.000000 0.703459
vt 0.000000 0.732274
s 0
f 1/1/1 2/2/1 4/3/1 3/4/1
f 3/4/2 4/3/2 8/5/2 7/6/2
f 7/6/3 8/5/3 6/7/3 5/8/3
f 5/8/4 6/7/4 2/9/4 1/10/4
f 5/8/5 1/11/5 40/12/5 32/13/5 34/14/5 33/15/5 39/16/5 36/17/5 35/18/5 38/19/5 37/20/5
f 40/12/5 1/11/5 3/21/5 7/6/5 5/8/5 37/20/5 17/22/5 23/23/5 20/24/5 19/25/5 21/26/5 22/27/5 18/28/5 24/29/5 14/30/5 15/31/5 16/32/5 13/33/5 12/34/5 10/35/5 11/36/5 9/37/5 29/38/5 31/39/5 27/40/5 25/41/5 26/42/5 30/43/5 28/44/5
f 57/45/6 2/46/6 6/7/6 71/47/6 62/48/6 63/49/6 64/50/6 61/51/6 59/52/6 58/53/6 60/54/6
f 71/47/6 6/7/6 8/5/6 4/55/6 2/46/6 57/45/6 44/56/6 46/57/6 42/58/6 41/59/6 43/60/6 47/61/6 45/62/6 56/63/6 48/64/6 50/65/6 49/66/6 55/67/6 52/68/6 51/69/6 54/70/6 53/71/6 66/72/6 70/73/6 69/74/6 67/75/6 68/76/6 72/77/6 65/78/6
f 55/79/7 13/80/7 16/81/7 52/82/7
f 52/82/8 16/81/8 15/83/8 51/84/8
f 51/84/9 15/83/9 14/85/9 54/86/9
f 54/86/10 14/85/10 24/87/10 53/88/10
f 24/87/11 18/89/11 66/90/11 53/88/11
f 18/89/12 22/91/12 70/92/12 66/90/12
f 22/91/13 21/93/13 69/94/13 70/92/13
f 21/93/14 19/95/14 67/96/14 69/94/14
f 19/95/15 20/97/15 68/98/15 67/96/15
f 20/97/16 23/99/16 72/100/16 68/98/16
f 23/99/17 17/101/17 65/102/17 72/100/17
f 17/101/18 37/103/18 71/104/18 65/102/18
f 37/103/19 38/105/19 62/106/19 71/104/19
f 38/105/20 35/107/20 63/108/20 62/106/20
f 35/107/21 36/109/21 64/110/21 63/108/21
f 36/109/22 39/111/22 61/112/22 64/110/22
f 39/111/23 33/113/23 59/114/23 61/112/23
f 33/113/24 34/115/24 58/116/24 59/114/24
f 34/115/25 32/117/25 60/118/25 58/116/25
f 32/117/26 40/119/26 57/120/26 60/118/26
f 57/120/27 40/119/27 28/121/27 44/122/27
f 44/122/28 28/121/28 30/123/28 46/124/28
f 46/124/29 30/123/29 26/125/29 42/126/29
f 42/126/30 26/125/30 25/127/30 41/128/30
f 41/128/31 25/127/31 27/129/31 43/130/31
f 43/130/32 27/129/32 31/131/32 47/132/32
f 47/132/33 31/131/33 29/133/33 45/134/33
f 45/134/34 29/133/34 9/135/34 56/136/34
f 56/136/35 9/135/35 11/137/35 48/138/35
f 48/138/36 11/137/36 10/139/36 50/140/36
f 50/140/37 10/139/37 12/141/37 49/142/37
f 49/142/38 12/141/38 13/143/38 55/144/38
